<?xml version="1.0" standalone="no"?><svg xmlns="http://www.w3.org/2000/svg" viewBox="0 0 1440 320"><path fill="#a2d9ff" fill-opacity="1" d="M0,224L6.2,229.3C12.3,235,25,245,37,213.3C49.2,181,62,107,74,96C86.2,85,98,139,111,154.7C123.1,171,135,149,148,128C160,107,172,85,185,80C196.9,75,209,85,222,101.3C233.8,117,246,139,258,133.3C270.8,128,283,96,295,74.7C307.7,53,320,43,332,74.7C344.6,107,357,181,369,208C381.5,235,394,213,406,192C418.5,171,431,149,443,128C455.4,107,468,85,480,101.3C492.3,117,505,171,517,202.7C529.2,235,542,245,554,218.7C566.2,192,578,128,591,122.7C603.1,117,615,171,628,197.3C640,224,652,224,665,213.3C676.9,203,689,181,702,186.7C713.8,192,726,224,738,202.7C750.8,181,763,107,775,69.3C787.7,32,800,32,812,37.3C824.6,43,837,53,849,48C861.5,43,874,21,886,37.3C898.5,53,911,107,923,138.7C935.4,171,948,181,960,165.3C972.3,149,985,107,997,112C1009.2,117,1022,171,1034,202.7C1046.2,235,1058,245,1071,218.7C1083.1,192,1095,128,1108,106.7C1120,85,1132,107,1145,117.3C1156.9,128,1169,128,1182,112C1193.8,96,1206,64,1218,69.3C1230.8,75,1243,117,1255,117.3C1267.7,117,1280,75,1292,69.3C1304.6,64,1317,96,1329,117.3C1341.5,139,1354,149,1366,176C1378.5,203,1391,245,1403,272C1415.4,299,1428,309,1434,314.7L1440,320L1440,320L1433.8,320C1427.7,320,1415,320,1403,320C1390.8,320,1378,320,1366,320C1353.8,320,1342,320,1329,320C1316.9,320,1305,320,1292,320C1280,320,1268,320,1255,320C1243.1,320,1231,320,1218,320C1206.2,320,1194,320,1182,320C1169.2,320,1157,320,1145,320C1132.3,320,1120,320,1108,320C1095.4,320,1083,320,1071,320C1058.5,320,1046,320,1034,320C1021.5,320,1009,320,997,320C984.6,320,972,320,960,320C947.7,320,935,320,923,320C910.8,320,898,320,886,320C873.8,320,862,320,849,320C836.9,320,825,320,812,320C800,320,788,320,775,320C763.1,320,751,320,738,320C726.2,320,714,320,702,320C689.2,320,677,320,665,320C652.3,320,640,320,628,320C615.4,320,603,320,591,320C578.5,320,566,320,554,320C541.5,320,529,320,517,320C504.6,320,492,320,480,320C467.7,320,455,320,443,320C430.8,320,418,320,406,320C393.8,320,382,320,369,320C356.9,320,345,320,332,320C320,320,308,320,295,320C283.1,320,271,320,258,320C246.2,320,234,320,222,320C209.2,320,197,320,185,320C172.3,320,160,320,148,320C135.4,320,123,320,111,320C98.5,320,86,320,74,320C61.5,320,49,320,37,320C24.6,320,12,320,6,320L0,320Z"></path></svg>